<mxfile host="app.diagrams.net" agent="Mozilla/5.0 (Windows NT 10.0; Win64; x64) AppleWebKit/537.36 (KHTML, like Gecko) Chrome/135.0.0.0 Safari/537.36" version="26.2.14">
  <diagram id="vX6xC0HKu8AdidH3YZPW" name="Page-1">
    <mxGraphModel dx="868" dy="1173" grid="1" gridSize="10" guides="1" tooltips="1" connect="1" arrows="1" fold="1" page="1" pageScale="1" pageWidth="850" pageHeight="1100" math="0" shadow="0">
      <root>
        <mxCell id="0" />
        <mxCell id="1" parent="0" />
        <mxCell id="psplkfs4_8VYPCOgKPKU-22" value="" style="group" parent="1" vertex="1" connectable="0">
          <mxGeometry x="60" y="230" width="100" height="60" as="geometry" />
        </mxCell>
        <mxCell id="psplkfs4_8VYPCOgKPKU-15" value="" style="rounded=0;whiteSpace=wrap;html=1;" parent="psplkfs4_8VYPCOgKPKU-22" vertex="1">
          <mxGeometry width="100" height="60" as="geometry" />
        </mxCell>
        <mxCell id="psplkfs4_8VYPCOgKPKU-16" value="" style="endArrow=none;html=1;rounded=0;exitX=0;exitY=0.75;exitDx=0;exitDy=0;entryX=1;entryY=0.75;entryDx=0;entryDy=0;" parent="psplkfs4_8VYPCOgKPKU-22" source="psplkfs4_8VYPCOgKPKU-15" target="psplkfs4_8VYPCOgKPKU-15" edge="1">
          <mxGeometry width="50" height="50" relative="1" as="geometry">
            <mxPoint x="-20" y="50" as="sourcePoint" />
            <mxPoint x="30" as="targetPoint" />
          </mxGeometry>
        </mxCell>
        <mxCell id="psplkfs4_8VYPCOgKPKU-17" value="" style="endArrow=none;html=1;rounded=0;exitX=0.36;exitY=0.997;exitDx=0;exitDy=0;exitPerimeter=0;" parent="psplkfs4_8VYPCOgKPKU-22" source="psplkfs4_8VYPCOgKPKU-15" edge="1">
          <mxGeometry width="50" height="50" relative="1" as="geometry">
            <mxPoint x="-20" y="50" as="sourcePoint" />
            <mxPoint x="36" y="45" as="targetPoint" />
          </mxGeometry>
        </mxCell>
        <mxCell id="psplkfs4_8VYPCOgKPKU-19" value="3.1" style="text;html=1;align=center;verticalAlign=middle;whiteSpace=wrap;rounded=0;fontSize=8;" parent="psplkfs4_8VYPCOgKPKU-22" vertex="1">
          <mxGeometry x="7" y="47" width="20" height="10" as="geometry" />
        </mxCell>
        <mxCell id="psplkfs4_8VYPCOgKPKU-21" value="Обработка заявки" style="text;html=1;align=center;verticalAlign=middle;whiteSpace=wrap;rounded=0;fontSize=8;" parent="psplkfs4_8VYPCOgKPKU-22" vertex="1">
          <mxGeometry x="10" y="8" width="80" height="30" as="geometry" />
        </mxCell>
        <mxCell id="psplkfs4_8VYPCOgKPKU-30" value="" style="group" parent="1" vertex="1" connectable="0">
          <mxGeometry x="170" y="230" width="100" height="60" as="geometry" />
        </mxCell>
        <mxCell id="psplkfs4_8VYPCOgKPKU-24" value="" style="rounded=0;whiteSpace=wrap;html=1;" parent="psplkfs4_8VYPCOgKPKU-30" vertex="1">
          <mxGeometry width="100" height="60" as="geometry" />
        </mxCell>
        <mxCell id="psplkfs4_8VYPCOgKPKU-25" value="" style="endArrow=none;html=1;rounded=0;exitX=0;exitY=0.75;exitDx=0;exitDy=0;entryX=1;entryY=0.75;entryDx=0;entryDy=0;" parent="psplkfs4_8VYPCOgKPKU-30" source="psplkfs4_8VYPCOgKPKU-24" target="psplkfs4_8VYPCOgKPKU-24" edge="1">
          <mxGeometry width="50" height="50" relative="1" as="geometry">
            <mxPoint x="-20" y="50" as="sourcePoint" />
            <mxPoint x="30" as="targetPoint" />
          </mxGeometry>
        </mxCell>
        <mxCell id="psplkfs4_8VYPCOgKPKU-26" value="" style="endArrow=none;html=1;rounded=0;" parent="psplkfs4_8VYPCOgKPKU-30" edge="1">
          <mxGeometry width="50" height="50" relative="1" as="geometry">
            <mxPoint x="12" y="45" as="sourcePoint" />
            <mxPoint x="12" as="targetPoint" />
          </mxGeometry>
        </mxCell>
        <mxCell id="psplkfs4_8VYPCOgKPKU-27" value="3.1" style="text;html=1;align=center;verticalAlign=middle;whiteSpace=wrap;rounded=0;fontSize=8;" parent="psplkfs4_8VYPCOgKPKU-30" vertex="1">
          <mxGeometry x="40" y="47" width="20" height="10" as="geometry" />
        </mxCell>
        <mxCell id="psplkfs4_8VYPCOgKPKU-28" value="Обработка заявки" style="text;html=1;align=left;verticalAlign=middle;whiteSpace=wrap;rounded=0;fontSize=8;" parent="psplkfs4_8VYPCOgKPKU-30" vertex="1">
          <mxGeometry x="21" y="8" width="69" height="30" as="geometry" />
        </mxCell>
        <mxCell id="psplkfs4_8VYPCOgKPKU-37" value="" style="group" parent="1" vertex="1" connectable="0">
          <mxGeometry x="290" y="245" width="30" height="45" as="geometry" />
        </mxCell>
        <mxCell id="psplkfs4_8VYPCOgKPKU-31" value="" style="rounded=0;whiteSpace=wrap;html=1;" parent="psplkfs4_8VYPCOgKPKU-37" vertex="1">
          <mxGeometry width="30" height="30" as="geometry" />
        </mxCell>
        <mxCell id="psplkfs4_8VYPCOgKPKU-32" value="" style="endArrow=none;html=1;rounded=0;" parent="psplkfs4_8VYPCOgKPKU-37" edge="1">
          <mxGeometry width="50" height="50" relative="1" as="geometry">
            <mxPoint x="6" as="sourcePoint" />
            <mxPoint x="6" y="30" as="targetPoint" />
          </mxGeometry>
        </mxCell>
        <mxCell id="psplkfs4_8VYPCOgKPKU-33" value="X" style="text;html=1;align=center;verticalAlign=middle;whiteSpace=wrap;rounded=0;" parent="psplkfs4_8VYPCOgKPKU-37" vertex="1">
          <mxGeometry x="6" width="24" height="30" as="geometry" />
        </mxCell>
        <mxCell id="psplkfs4_8VYPCOgKPKU-35" value="J1" style="text;html=1;align=center;verticalAlign=middle;whiteSpace=wrap;rounded=0;fontSize=10;" parent="psplkfs4_8VYPCOgKPKU-37" vertex="1">
          <mxGeometry x="3" y="35" width="24" height="10" as="geometry" />
        </mxCell>
        <mxCell id="QXUWeo6WKKX6KTqAyFdj-1" value="" style="group" parent="1" vertex="1" connectable="0">
          <mxGeometry x="240" y="468" width="100" height="60" as="geometry" />
        </mxCell>
        <mxCell id="QXUWeo6WKKX6KTqAyFdj-2" value="" style="rounded=0;whiteSpace=wrap;html=1;" parent="QXUWeo6WKKX6KTqAyFdj-1" vertex="1">
          <mxGeometry width="100" height="60" as="geometry" />
        </mxCell>
        <mxCell id="QXUWeo6WKKX6KTqAyFdj-3" value="" style="endArrow=none;html=1;rounded=0;exitX=0;exitY=0.75;exitDx=0;exitDy=0;entryX=1;entryY=0.75;entryDx=0;entryDy=0;" parent="QXUWeo6WKKX6KTqAyFdj-1" source="QXUWeo6WKKX6KTqAyFdj-2" target="QXUWeo6WKKX6KTqAyFdj-2" edge="1">
          <mxGeometry width="50" height="50" relative="1" as="geometry">
            <mxPoint x="-20" y="50" as="sourcePoint" />
            <mxPoint x="30" as="targetPoint" />
          </mxGeometry>
        </mxCell>
        <mxCell id="QXUWeo6WKKX6KTqAyFdj-4" value="" style="endArrow=none;html=1;rounded=0;exitX=0.36;exitY=0.997;exitDx=0;exitDy=0;exitPerimeter=0;" parent="QXUWeo6WKKX6KTqAyFdj-1" source="QXUWeo6WKKX6KTqAyFdj-2" edge="1">
          <mxGeometry width="50" height="50" relative="1" as="geometry">
            <mxPoint x="-20" y="50" as="sourcePoint" />
            <mxPoint x="36" y="45" as="targetPoint" />
          </mxGeometry>
        </mxCell>
        <mxCell id="QXUWeo6WKKX6KTqAyFdj-5" value="3.2" style="text;html=1;align=center;verticalAlign=middle;whiteSpace=wrap;rounded=0;fontSize=8;" parent="QXUWeo6WKKX6KTqAyFdj-1" vertex="1">
          <mxGeometry x="7" y="47" width="20" height="10" as="geometry" />
        </mxCell>
        <mxCell id="QXUWeo6WKKX6KTqAyFdj-6" value="Сбор личных документов" style="text;html=1;align=center;verticalAlign=middle;whiteSpace=wrap;rounded=0;fontSize=8;" parent="QXUWeo6WKKX6KTqAyFdj-1" vertex="1">
          <mxGeometry x="10" y="8" width="80" height="30" as="geometry" />
        </mxCell>
        <mxCell id="QXUWeo6WKKX6KTqAyFdj-7" value="" style="group" parent="1" vertex="1" connectable="0">
          <mxGeometry x="240" y="562.5" width="100" height="60" as="geometry" />
        </mxCell>
        <mxCell id="QXUWeo6WKKX6KTqAyFdj-8" value="" style="rounded=0;whiteSpace=wrap;html=1;" parent="QXUWeo6WKKX6KTqAyFdj-7" vertex="1">
          <mxGeometry width="100" height="60" as="geometry" />
        </mxCell>
        <mxCell id="QXUWeo6WKKX6KTqAyFdj-9" value="" style="endArrow=none;html=1;rounded=0;exitX=0;exitY=0.75;exitDx=0;exitDy=0;entryX=1;entryY=0.75;entryDx=0;entryDy=0;" parent="QXUWeo6WKKX6KTqAyFdj-7" source="QXUWeo6WKKX6KTqAyFdj-8" target="QXUWeo6WKKX6KTqAyFdj-8" edge="1">
          <mxGeometry width="50" height="50" relative="1" as="geometry">
            <mxPoint x="-20" y="50" as="sourcePoint" />
            <mxPoint x="30" as="targetPoint" />
          </mxGeometry>
        </mxCell>
        <mxCell id="QXUWeo6WKKX6KTqAyFdj-10" value="" style="endArrow=none;html=1;rounded=0;exitX=0.36;exitY=0.997;exitDx=0;exitDy=0;exitPerimeter=0;" parent="QXUWeo6WKKX6KTqAyFdj-7" source="QXUWeo6WKKX6KTqAyFdj-8" edge="1">
          <mxGeometry width="50" height="50" relative="1" as="geometry">
            <mxPoint x="-20" y="50" as="sourcePoint" />
            <mxPoint x="36" y="45" as="targetPoint" />
          </mxGeometry>
        </mxCell>
        <mxCell id="QXUWeo6WKKX6KTqAyFdj-11" value="3.3" style="text;html=1;align=center;verticalAlign=middle;whiteSpace=wrap;rounded=0;fontSize=8;" parent="QXUWeo6WKKX6KTqAyFdj-7" vertex="1">
          <mxGeometry x="7" y="47" width="20" height="10" as="geometry" />
        </mxCell>
        <mxCell id="QXUWeo6WKKX6KTqAyFdj-12" value="Заполнение заявлений" style="text;html=1;align=center;verticalAlign=middle;whiteSpace=wrap;rounded=0;fontSize=8;" parent="QXUWeo6WKKX6KTqAyFdj-7" vertex="1">
          <mxGeometry x="10" y="8" width="80" height="30" as="geometry" />
        </mxCell>
        <mxCell id="QXUWeo6WKKX6KTqAyFdj-19" value="" style="group" parent="1" vertex="1" connectable="0">
          <mxGeometry x="540" y="520" width="100" height="60" as="geometry" />
        </mxCell>
        <mxCell id="QXUWeo6WKKX6KTqAyFdj-20" value="" style="rounded=0;whiteSpace=wrap;html=1;" parent="QXUWeo6WKKX6KTqAyFdj-19" vertex="1">
          <mxGeometry width="100" height="60" as="geometry" />
        </mxCell>
        <mxCell id="QXUWeo6WKKX6KTqAyFdj-21" value="" style="endArrow=none;html=1;rounded=0;exitX=0;exitY=0.75;exitDx=0;exitDy=0;entryX=1;entryY=0.75;entryDx=0;entryDy=0;" parent="QXUWeo6WKKX6KTqAyFdj-19" source="QXUWeo6WKKX6KTqAyFdj-20" target="QXUWeo6WKKX6KTqAyFdj-20" edge="1">
          <mxGeometry width="50" height="50" relative="1" as="geometry">
            <mxPoint x="-20" y="50" as="sourcePoint" />
            <mxPoint x="30" as="targetPoint" />
          </mxGeometry>
        </mxCell>
        <mxCell id="QXUWeo6WKKX6KTqAyFdj-22" value="" style="endArrow=none;html=1;rounded=0;exitX=0.36;exitY=0.997;exitDx=0;exitDy=0;exitPerimeter=0;" parent="QXUWeo6WKKX6KTqAyFdj-19" source="QXUWeo6WKKX6KTqAyFdj-20" edge="1">
          <mxGeometry width="50" height="50" relative="1" as="geometry">
            <mxPoint x="-20" y="50" as="sourcePoint" />
            <mxPoint x="36" y="45" as="targetPoint" />
          </mxGeometry>
        </mxCell>
        <mxCell id="QXUWeo6WKKX6KTqAyFdj-23" value="3.5" style="text;html=1;align=center;verticalAlign=middle;whiteSpace=wrap;rounded=0;fontSize=8;" parent="QXUWeo6WKKX6KTqAyFdj-19" vertex="1">
          <mxGeometry x="7" y="47" width="20" height="10" as="geometry" />
        </mxCell>
        <mxCell id="QXUWeo6WKKX6KTqAyFdj-24" value="&lt;table&gt;&lt;tbody&gt;&lt;tr&gt;&lt;td data-end=&quot;2309&quot; data-start=&quot;2302&quot; class=&quot;max-w-[calc(var(--thread-content-max-width)*2/3)]&quot;&gt;&lt;/td&gt;&lt;/tr&gt;&lt;/tbody&gt;&lt;/table&gt;&lt;table&gt;&lt;tbody&gt;&lt;tr&gt;&lt;td data-end=&quot;2340&quot; data-start=&quot;2309&quot; class=&quot;max-w-[calc(var(--thread-content-max-width)*2/3)]&quot;&gt;Отслеживание статуса подачи&lt;/td&gt;&lt;/tr&gt;&lt;/tbody&gt;&lt;/table&gt;" style="text;html=1;align=center;verticalAlign=middle;whiteSpace=wrap;rounded=0;fontSize=8;" parent="QXUWeo6WKKX6KTqAyFdj-19" vertex="1">
          <mxGeometry x="10" y="8" width="80" height="30" as="geometry" />
        </mxCell>
        <mxCell id="QXUWeo6WKKX6KTqAyFdj-25" value="" style="group" parent="1" vertex="1" connectable="0">
          <mxGeometry x="240" y="380" width="100" height="60" as="geometry" />
        </mxCell>
        <mxCell id="QXUWeo6WKKX6KTqAyFdj-26" value="" style="rounded=0;whiteSpace=wrap;html=1;" parent="QXUWeo6WKKX6KTqAyFdj-25" vertex="1">
          <mxGeometry width="100" height="60" as="geometry" />
        </mxCell>
        <mxCell id="QXUWeo6WKKX6KTqAyFdj-27" value="" style="endArrow=none;html=1;rounded=0;exitX=0;exitY=0.75;exitDx=0;exitDy=0;entryX=1;entryY=0.75;entryDx=0;entryDy=0;" parent="QXUWeo6WKKX6KTqAyFdj-25" source="QXUWeo6WKKX6KTqAyFdj-26" target="QXUWeo6WKKX6KTqAyFdj-26" edge="1">
          <mxGeometry width="50" height="50" relative="1" as="geometry">
            <mxPoint x="-20" y="50" as="sourcePoint" />
            <mxPoint x="30" as="targetPoint" />
          </mxGeometry>
        </mxCell>
        <mxCell id="QXUWeo6WKKX6KTqAyFdj-28" value="" style="endArrow=none;html=1;rounded=0;" parent="QXUWeo6WKKX6KTqAyFdj-25" edge="1">
          <mxGeometry width="50" height="50" relative="1" as="geometry">
            <mxPoint x="12" y="45" as="sourcePoint" />
            <mxPoint x="12" as="targetPoint" />
          </mxGeometry>
        </mxCell>
        <mxCell id="QXUWeo6WKKX6KTqAyFdj-30" value="Object/Личные документы" style="text;html=1;align=left;verticalAlign=middle;whiteSpace=wrap;rounded=0;fontSize=8;" parent="QXUWeo6WKKX6KTqAyFdj-25" vertex="1">
          <mxGeometry x="21" y="8" width="69" height="30" as="geometry" />
        </mxCell>
        <mxCell id="QXUWeo6WKKX6KTqAyFdj-31" value="" style="group" parent="1" vertex="1" connectable="0">
          <mxGeometry x="60" y="520" width="100" height="60" as="geometry" />
        </mxCell>
        <mxCell id="QXUWeo6WKKX6KTqAyFdj-32" value="" style="rounded=0;whiteSpace=wrap;html=1;" parent="QXUWeo6WKKX6KTqAyFdj-31" vertex="1">
          <mxGeometry width="100" height="60" as="geometry" />
        </mxCell>
        <mxCell id="QXUWeo6WKKX6KTqAyFdj-33" value="" style="endArrow=none;html=1;rounded=0;exitX=0;exitY=0.75;exitDx=0;exitDy=0;entryX=1;entryY=0.75;entryDx=0;entryDy=0;" parent="QXUWeo6WKKX6KTqAyFdj-31" source="QXUWeo6WKKX6KTqAyFdj-32" target="QXUWeo6WKKX6KTqAyFdj-32" edge="1">
          <mxGeometry width="50" height="50" relative="1" as="geometry">
            <mxPoint x="-20" y="50" as="sourcePoint" />
            <mxPoint x="30" as="targetPoint" />
          </mxGeometry>
        </mxCell>
        <mxCell id="QXUWeo6WKKX6KTqAyFdj-34" value="" style="endArrow=none;html=1;rounded=0;exitX=0.36;exitY=0.997;exitDx=0;exitDy=0;exitPerimeter=0;" parent="QXUWeo6WKKX6KTqAyFdj-31" source="QXUWeo6WKKX6KTqAyFdj-32" edge="1">
          <mxGeometry width="50" height="50" relative="1" as="geometry">
            <mxPoint x="-20" y="50" as="sourcePoint" />
            <mxPoint x="36" y="45" as="targetPoint" />
          </mxGeometry>
        </mxCell>
        <mxCell id="QXUWeo6WKKX6KTqAyFdj-35" value="3.1" style="text;html=1;align=center;verticalAlign=middle;whiteSpace=wrap;rounded=0;fontSize=8;" parent="QXUWeo6WKKX6KTqAyFdj-31" vertex="1">
          <mxGeometry x="7" y="47" width="20" height="10" as="geometry" />
        </mxCell>
        <mxCell id="QXUWeo6WKKX6KTqAyFdj-36" value="Определение необходимых документов" style="text;html=1;align=center;verticalAlign=middle;whiteSpace=wrap;rounded=0;fontSize=8;" parent="QXUWeo6WKKX6KTqAyFdj-31" vertex="1">
          <mxGeometry x="10" y="8" width="80" height="30" as="geometry" />
        </mxCell>
        <mxCell id="QXUWeo6WKKX6KTqAyFdj-48" value="" style="group" parent="1" vertex="1" connectable="0">
          <mxGeometry x="180" y="535" width="90" height="45" as="geometry" />
        </mxCell>
        <mxCell id="QXUWeo6WKKX6KTqAyFdj-49" value="" style="rounded=0;whiteSpace=wrap;html=1;" parent="QXUWeo6WKKX6KTqAyFdj-48" vertex="1">
          <mxGeometry width="30" height="30" as="geometry" />
        </mxCell>
        <mxCell id="QXUWeo6WKKX6KTqAyFdj-50" value="" style="endArrow=none;html=1;rounded=0;" parent="QXUWeo6WKKX6KTqAyFdj-48" edge="1">
          <mxGeometry width="50" height="50" relative="1" as="geometry">
            <mxPoint x="6" as="sourcePoint" />
            <mxPoint x="6" y="30" as="targetPoint" />
          </mxGeometry>
        </mxCell>
        <mxCell id="QXUWeo6WKKX6KTqAyFdj-51" value="&amp;amp;" style="text;html=1;align=center;verticalAlign=middle;whiteSpace=wrap;rounded=0;" parent="QXUWeo6WKKX6KTqAyFdj-48" vertex="1">
          <mxGeometry x="6" width="24" height="30" as="geometry" />
        </mxCell>
        <mxCell id="QXUWeo6WKKX6KTqAyFdj-52" value="J1" style="text;html=1;align=center;verticalAlign=middle;whiteSpace=wrap;rounded=0;fontSize=10;" parent="QXUWeo6WKKX6KTqAyFdj-48" vertex="1">
          <mxGeometry x="3" y="35" width="24" height="10" as="geometry" />
        </mxCell>
        <mxCell id="QXUWeo6WKKX6KTqAyFdj-13" value="" style="group" parent="QXUWeo6WKKX6KTqAyFdj-48" vertex="1" connectable="0">
          <mxGeometry x="240" y="-15" width="100" height="60" as="geometry" />
        </mxCell>
        <mxCell id="QXUWeo6WKKX6KTqAyFdj-14" value="" style="rounded=0;whiteSpace=wrap;html=1;" parent="QXUWeo6WKKX6KTqAyFdj-13" vertex="1">
          <mxGeometry width="100" height="60" as="geometry" />
        </mxCell>
        <mxCell id="QXUWeo6WKKX6KTqAyFdj-15" value="" style="endArrow=none;html=1;rounded=0;exitX=0;exitY=0.75;exitDx=0;exitDy=0;entryX=1;entryY=0.75;entryDx=0;entryDy=0;" parent="QXUWeo6WKKX6KTqAyFdj-13" source="QXUWeo6WKKX6KTqAyFdj-14" target="QXUWeo6WKKX6KTqAyFdj-14" edge="1">
          <mxGeometry width="50" height="50" relative="1" as="geometry">
            <mxPoint x="-20" y="50" as="sourcePoint" />
            <mxPoint x="30" as="targetPoint" />
          </mxGeometry>
        </mxCell>
        <mxCell id="QXUWeo6WKKX6KTqAyFdj-16" value="" style="endArrow=none;html=1;rounded=0;exitX=0.36;exitY=0.997;exitDx=0;exitDy=0;exitPerimeter=0;" parent="QXUWeo6WKKX6KTqAyFdj-13" source="QXUWeo6WKKX6KTqAyFdj-14" edge="1">
          <mxGeometry width="50" height="50" relative="1" as="geometry">
            <mxPoint x="-20" y="50" as="sourcePoint" />
            <mxPoint x="36" y="45" as="targetPoint" />
          </mxGeometry>
        </mxCell>
        <mxCell id="QXUWeo6WKKX6KTqAyFdj-17" value="3.4" style="text;html=1;align=center;verticalAlign=middle;whiteSpace=wrap;rounded=0;fontSize=8;" parent="QXUWeo6WKKX6KTqAyFdj-13" vertex="1">
          <mxGeometry x="7" y="47" width="20" height="10" as="geometry" />
        </mxCell>
        <mxCell id="QXUWeo6WKKX6KTqAyFdj-18" value="Подача документов в приёмную комиссию" style="text;html=1;align=center;verticalAlign=middle;whiteSpace=wrap;rounded=0;fontSize=8;" parent="QXUWeo6WKKX6KTqAyFdj-13" vertex="1">
          <mxGeometry x="10" y="8" width="80" height="30" as="geometry" />
        </mxCell>
        <mxCell id="QXUWeo6WKKX6KTqAyFdj-54" value="" style="group" parent="1" vertex="1" connectable="0">
          <mxGeometry x="370" y="535" width="30" height="45" as="geometry" />
        </mxCell>
        <mxCell id="QXUWeo6WKKX6KTqAyFdj-55" value="" style="rounded=0;whiteSpace=wrap;html=1;" parent="QXUWeo6WKKX6KTqAyFdj-54" vertex="1">
          <mxGeometry width="30" height="30" as="geometry" />
        </mxCell>
        <mxCell id="QXUWeo6WKKX6KTqAyFdj-56" value="" style="endArrow=none;html=1;rounded=0;" parent="QXUWeo6WKKX6KTqAyFdj-54" edge="1">
          <mxGeometry width="50" height="50" relative="1" as="geometry">
            <mxPoint x="6" as="sourcePoint" />
            <mxPoint x="6" y="30" as="targetPoint" />
          </mxGeometry>
        </mxCell>
        <mxCell id="QXUWeo6WKKX6KTqAyFdj-57" value="&amp;amp;" style="text;html=1;align=center;verticalAlign=middle;whiteSpace=wrap;rounded=0;" parent="QXUWeo6WKKX6KTqAyFdj-54" vertex="1">
          <mxGeometry x="6" width="24" height="30" as="geometry" />
        </mxCell>
        <mxCell id="QXUWeo6WKKX6KTqAyFdj-58" value="J2" style="text;html=1;align=center;verticalAlign=middle;whiteSpace=wrap;rounded=0;fontSize=10;" parent="QXUWeo6WKKX6KTqAyFdj-54" vertex="1">
          <mxGeometry x="3" y="35" width="24" height="10" as="geometry" />
        </mxCell>
        <mxCell id="QXUWeo6WKKX6KTqAyFdj-59" value="" style="group" parent="1" vertex="1" connectable="0">
          <mxGeometry x="660" y="535" width="30" height="45" as="geometry" />
        </mxCell>
        <mxCell id="QXUWeo6WKKX6KTqAyFdj-60" value="" style="rounded=0;whiteSpace=wrap;html=1;" parent="QXUWeo6WKKX6KTqAyFdj-59" vertex="1">
          <mxGeometry width="30" height="30" as="geometry" />
        </mxCell>
        <mxCell id="QXUWeo6WKKX6KTqAyFdj-61" value="" style="endArrow=none;html=1;rounded=0;" parent="QXUWeo6WKKX6KTqAyFdj-59" edge="1">
          <mxGeometry width="50" height="50" relative="1" as="geometry">
            <mxPoint x="6" as="sourcePoint" />
            <mxPoint x="6" y="30" as="targetPoint" />
          </mxGeometry>
        </mxCell>
        <mxCell id="QXUWeo6WKKX6KTqAyFdj-83" style="edgeStyle=orthogonalEdgeStyle;rounded=0;orthogonalLoop=1;jettySize=auto;html=1;" parent="QXUWeo6WKKX6KTqAyFdj-59" source="QXUWeo6WKKX6KTqAyFdj-62" edge="1">
          <mxGeometry relative="1" as="geometry">
            <mxPoint x="120" y="-45" as="targetPoint" />
            <Array as="points">
              <mxPoint x="40" y="15" />
              <mxPoint x="40" y="-45" />
            </Array>
          </mxGeometry>
        </mxCell>
        <mxCell id="QXUWeo6WKKX6KTqAyFdj-84" value="Документы&lt;div&gt;приняты&lt;/div&gt;" style="edgeLabel;html=1;align=center;verticalAlign=middle;resizable=0;points=[];" parent="QXUWeo6WKKX6KTqAyFdj-83" vertex="1" connectable="0">
          <mxGeometry x="0.0044" relative="1" as="geometry">
            <mxPoint x="-5" y="-22" as="offset" />
          </mxGeometry>
        </mxCell>
        <mxCell id="QXUWeo6WKKX6KTqAyFdj-85" value="Документы&lt;div&gt;не приняты&lt;/div&gt;" style="edgeLabel;html=1;align=center;verticalAlign=middle;resizable=0;points=[];" parent="QXUWeo6WKKX6KTqAyFdj-83" vertex="1" connectable="0">
          <mxGeometry x="0.0044" relative="1" as="geometry">
            <mxPoint x="-45" y="110" as="offset" />
          </mxGeometry>
        </mxCell>
        <mxCell id="QXUWeo6WKKX6KTqAyFdj-88" value="..." style="edgeLabel;html=1;align=center;verticalAlign=middle;resizable=0;points=[];" parent="QXUWeo6WKKX6KTqAyFdj-83" vertex="1" connectable="0">
          <mxGeometry x="0.0044" relative="1" as="geometry">
            <mxPoint x="85" as="offset" />
          </mxGeometry>
        </mxCell>
        <mxCell id="QXUWeo6WKKX6KTqAyFdj-62" value="X" style="text;html=1;align=center;verticalAlign=middle;whiteSpace=wrap;rounded=0;" parent="QXUWeo6WKKX6KTqAyFdj-59" vertex="1">
          <mxGeometry x="6" width="24" height="30" as="geometry" />
        </mxCell>
        <mxCell id="QXUWeo6WKKX6KTqAyFdj-63" value="J3" style="text;html=1;align=center;verticalAlign=middle;whiteSpace=wrap;rounded=0;fontSize=10;" parent="QXUWeo6WKKX6KTqAyFdj-59" vertex="1">
          <mxGeometry x="3" y="35" width="24" height="10" as="geometry" />
        </mxCell>
        <mxCell id="QXUWeo6WKKX6KTqAyFdj-64" value="" style="group" parent="1" vertex="1" connectable="0">
          <mxGeometry x="720" y="562.5" width="100" height="60" as="geometry" />
        </mxCell>
        <mxCell id="QXUWeo6WKKX6KTqAyFdj-65" value="" style="rounded=0;whiteSpace=wrap;html=1;" parent="QXUWeo6WKKX6KTqAyFdj-64" vertex="1">
          <mxGeometry width="100" height="60" as="geometry" />
        </mxCell>
        <mxCell id="QXUWeo6WKKX6KTqAyFdj-66" value="" style="endArrow=none;html=1;rounded=0;exitX=0;exitY=0.75;exitDx=0;exitDy=0;entryX=1;entryY=0.75;entryDx=0;entryDy=0;" parent="QXUWeo6WKKX6KTqAyFdj-64" source="QXUWeo6WKKX6KTqAyFdj-65" target="QXUWeo6WKKX6KTqAyFdj-65" edge="1">
          <mxGeometry width="50" height="50" relative="1" as="geometry">
            <mxPoint x="-20" y="50" as="sourcePoint" />
            <mxPoint x="30" as="targetPoint" />
          </mxGeometry>
        </mxCell>
        <mxCell id="QXUWeo6WKKX6KTqAyFdj-67" value="" style="endArrow=none;html=1;rounded=0;" parent="QXUWeo6WKKX6KTqAyFdj-64" edge="1">
          <mxGeometry width="50" height="50" relative="1" as="geometry">
            <mxPoint x="12" y="45" as="sourcePoint" />
            <mxPoint x="12" as="targetPoint" />
          </mxGeometry>
        </mxCell>
        <mxCell id="QXUWeo6WKKX6KTqAyFdj-68" value="3.1" style="text;html=1;align=center;verticalAlign=middle;whiteSpace=wrap;rounded=0;fontSize=8;" parent="QXUWeo6WKKX6KTqAyFdj-64" vertex="1">
          <mxGeometry x="40" y="47" width="20" height="10" as="geometry" />
        </mxCell>
        <mxCell id="QXUWeo6WKKX6KTqAyFdj-69" value="GO-TO/Определение документов" style="text;html=1;align=left;verticalAlign=middle;whiteSpace=wrap;rounded=0;fontSize=8;" parent="QXUWeo6WKKX6KTqAyFdj-64" vertex="1">
          <mxGeometry x="21" y="8" width="69" height="30" as="geometry" />
        </mxCell>
        <mxCell id="QXUWeo6WKKX6KTqAyFdj-71" style="edgeStyle=orthogonalEdgeStyle;rounded=0;orthogonalLoop=1;jettySize=auto;html=1;entryX=0;entryY=0.5;entryDx=0;entryDy=0;" parent="1" source="QXUWeo6WKKX6KTqAyFdj-32" target="QXUWeo6WKKX6KTqAyFdj-49" edge="1">
          <mxGeometry relative="1" as="geometry" />
        </mxCell>
        <mxCell id="QXUWeo6WKKX6KTqAyFdj-72" style="edgeStyle=orthogonalEdgeStyle;rounded=0;orthogonalLoop=1;jettySize=auto;html=1;entryX=0;entryY=0.5;entryDx=0;entryDy=0;" parent="1" source="QXUWeo6WKKX6KTqAyFdj-51" target="QXUWeo6WKKX6KTqAyFdj-2" edge="1">
          <mxGeometry relative="1" as="geometry">
            <Array as="points">
              <mxPoint x="220" y="550" />
              <mxPoint x="220" y="498" />
            </Array>
          </mxGeometry>
        </mxCell>
        <mxCell id="QXUWeo6WKKX6KTqAyFdj-73" style="edgeStyle=orthogonalEdgeStyle;rounded=0;orthogonalLoop=1;jettySize=auto;html=1;entryX=0;entryY=0.5;entryDx=0;entryDy=0;" parent="1" source="QXUWeo6WKKX6KTqAyFdj-51" target="QXUWeo6WKKX6KTqAyFdj-8" edge="1">
          <mxGeometry relative="1" as="geometry">
            <Array as="points">
              <mxPoint x="220" y="550" />
              <mxPoint x="220" y="593" />
            </Array>
          </mxGeometry>
        </mxCell>
        <mxCell id="QXUWeo6WKKX6KTqAyFdj-74" style="edgeStyle=orthogonalEdgeStyle;rounded=0;orthogonalLoop=1;jettySize=auto;html=1;entryX=0.5;entryY=0;entryDx=0;entryDy=0;" parent="1" source="QXUWeo6WKKX6KTqAyFdj-26" target="QXUWeo6WKKX6KTqAyFdj-2" edge="1">
          <mxGeometry relative="1" as="geometry" />
        </mxCell>
        <mxCell id="QXUWeo6WKKX6KTqAyFdj-75" style="edgeStyle=orthogonalEdgeStyle;rounded=0;orthogonalLoop=1;jettySize=auto;html=1;entryX=0;entryY=0.5;entryDx=0;entryDy=0;" parent="1" source="QXUWeo6WKKX6KTqAyFdj-2" target="QXUWeo6WKKX6KTqAyFdj-55" edge="1">
          <mxGeometry relative="1" as="geometry">
            <Array as="points">
              <mxPoint x="350" y="498" />
              <mxPoint x="350" y="550" />
            </Array>
          </mxGeometry>
        </mxCell>
        <mxCell id="QXUWeo6WKKX6KTqAyFdj-76" style="edgeStyle=orthogonalEdgeStyle;rounded=0;orthogonalLoop=1;jettySize=auto;html=1;entryX=0;entryY=0.5;entryDx=0;entryDy=0;" parent="1" source="QXUWeo6WKKX6KTqAyFdj-8" target="QXUWeo6WKKX6KTqAyFdj-55" edge="1">
          <mxGeometry relative="1" as="geometry">
            <Array as="points">
              <mxPoint x="350" y="593" />
              <mxPoint x="350" y="550" />
            </Array>
          </mxGeometry>
        </mxCell>
        <mxCell id="QXUWeo6WKKX6KTqAyFdj-77" style="edgeStyle=orthogonalEdgeStyle;rounded=0;orthogonalLoop=1;jettySize=auto;html=1;entryX=0;entryY=0.5;entryDx=0;entryDy=0;" parent="1" source="QXUWeo6WKKX6KTqAyFdj-57" target="QXUWeo6WKKX6KTqAyFdj-14" edge="1">
          <mxGeometry relative="1" as="geometry" />
        </mxCell>
        <mxCell id="QXUWeo6WKKX6KTqAyFdj-80" style="edgeStyle=orthogonalEdgeStyle;rounded=0;orthogonalLoop=1;jettySize=auto;html=1;entryX=0;entryY=0.5;entryDx=0;entryDy=0;" parent="1" source="QXUWeo6WKKX6KTqAyFdj-14" target="QXUWeo6WKKX6KTqAyFdj-20" edge="1">
          <mxGeometry relative="1" as="geometry" />
        </mxCell>
        <mxCell id="QXUWeo6WKKX6KTqAyFdj-81" style="edgeStyle=orthogonalEdgeStyle;rounded=0;orthogonalLoop=1;jettySize=auto;html=1;entryX=0;entryY=0.5;entryDx=0;entryDy=0;" parent="1" source="QXUWeo6WKKX6KTqAyFdj-20" target="QXUWeo6WKKX6KTqAyFdj-60" edge="1">
          <mxGeometry relative="1" as="geometry" />
        </mxCell>
        <mxCell id="QXUWeo6WKKX6KTqAyFdj-82" style="edgeStyle=orthogonalEdgeStyle;rounded=0;orthogonalLoop=1;jettySize=auto;html=1;entryX=0;entryY=0.5;entryDx=0;entryDy=0;" parent="1" source="QXUWeo6WKKX6KTqAyFdj-62" target="QXUWeo6WKKX6KTqAyFdj-65" edge="1">
          <mxGeometry relative="1" as="geometry">
            <Array as="points">
              <mxPoint x="700" y="550" />
              <mxPoint x="700" y="593" />
            </Array>
          </mxGeometry>
        </mxCell>
      </root>
    </mxGraphModel>
  </diagram>
</mxfile>
